<svg xmlns="http://www.w3.org/2000/svg" xml:space="preserve" id="Layer_1" width="256" height="256" x="0" y="0" version="1.1"><style id="style902" type="text/css">.st0{fill:#2656a6}.st1{fill:#671d5b}</style><g id="g263" transform="scale(1.86672)"><g id="g922" style="fill:#bf0a30;fill-opacity:1" transform="translate(-43.87 -12.73)"><path id="path904" d="M148.32 138.66c19.18-12.07 31.93-33.41 31.93-57.74 0-14.08-4.27-27.17-11.59-38.03-3.23 1.69-6.56 3.2-9.99 4.53-.53 4.36-4.24 7.74-8.74 7.74-.57 0-1.13-.06-1.68-.16-15.69 16.03-25.55 37.78-26.13 61.79a8.8 8.8 0 0 1 6.59 8.52c0 1.01-.18 1.98-.49 2.88 6.2 4.27 12.94 7.8 20.1 10.47z" class="st0" style="fill:#bf0a30;fill-opacity:1"/><path id="path906" d="M116.36 133.36c-3.09-1.37-5.26-4.46-5.26-8.06 0-.78.11-1.52.3-2.24a99.077 99.077 0 0 1-17.89-23.73c-.16.01-.33.02-.49.02-3.63 0-6.74-2.2-8.09-5.33a97.69 97.69 0 0 1-13.9 1.41c-9 .27-17.75-.68-26.11-2.7 5.6 32.02 33.52 56.37 67.15 56.37 2.64 0 5.24-.17 7.8-.46a96.65 96.65 0 0 1-3.51-15.28z" class="st0" style="fill:#bf0a30;fill-opacity:1"/><path id="path908" d="M140.99 52.42a99.004 99.004 0 0 1-17.76 1.61c-9.69 0-19.06-1.42-27.92-4.04a8.838 8.838 0 0 1-6.72 4.6c.19 9.47 1.81 18.59 4.68 27.16 1.91.05 3.66.71 5.08 1.79 17.13-6.02 31.9-16.98 42.64-31.12z" class="st0" style="fill:#bf0a30;fill-opacity:1"/><path id="path910" d="M86.92 84.19c-3.34-9.87-5.15-20.44-5.15-31.43v-.26c-1.87-1.62-3.05-4-3.05-6.66 0-.8.12-1.57.32-2.31a98.815 98.815 0 0 1-15.93-10.06c-11.9 12.28-19.24 29-19.24 47.45 0 1.54.07 3.07.17 4.58a91.771 91.771 0 0 0 40.85 1.63 8.851 8.851 0 0 1 2.03-2.94z" class="st0" style="fill:#bf0a30;fill-opacity:1"/><path id="path912" d="M141.17 45.47c.44-4.45 4.2-7.93 8.77-7.93.09 0 .18.01.26.01 1.6-3.24 3.02-6.59 4.24-10.03-11.64-9.25-26.36-14.79-42.38-14.79-5.18 0-10.23.6-15.08 1.69a90.743 90.743 0 0 0-7.12 22.93c2.84.78 5.11 2.94 6.03 5.72 8.64 2.7 17.82 4.16 27.33 4.16 6.15.01 12.15-.61 17.95-1.76z" class="st0" style="fill:#bf0a30;fill-opacity:1"/><path id="path914" d="M115.33 117.41c.23-14.17 3.47-27.62 9.11-39.74a98.022 98.022 0 0 1-22.67 11.85 8.77 8.77 0 0 1-2.15 6.84 92.025 92.025 0 0 0 15.71 21.05z" class="st0" style="fill:#bf0a30;fill-opacity:1"/><path id="path916" d="M123.66 133.27c-.14.07-.28.13-.42.19.77 4.83 1.91 9.53 3.4 14.07 4.87-1.06 9.54-2.64 13.96-4.68a98.89 98.89 0 0 1-16.94-9.58z" class="st0" style="fill:#bf0a30;fill-opacity:1"/><path id="path918" d="M88.54 16.9a68.128 68.128 0 0 0-20.4 11.88c4.6 3.47 9.54 6.52 14.76 9.09 1.11-7.28 3.02-14.3 5.64-20.97z" class="st0" style="fill:#bf0a30;fill-opacity:1"/><path id="path920" d="M159.9 32.34c-.8 2.07-1.67 4.1-2.6 6.1a94.9 94.9 0 0 1 5.2-3.41c-.84-.92-1.71-1.82-2.6-2.69z" class="st0" style="fill:#bf0a30;fill-opacity:1"/></g><circle id="circle924" cx="43.44" cy="33.13" r="6.41" class="st1" style="fill:#002868;fill-opacity:1"/><circle id="circle926" cx="49.36" cy="77.94" r="6.41" class="st1" style="fill:#002868;fill-opacity:1"/><circle id="circle928" cx="106.3" cy="33.86" r="6.41" class="st1" style="fill:#002868;fill-opacity:1"/><circle id="circle930" cx="76.23" cy="112.5" r="6.41" class="st1" style="fill:#002868;fill-opacity:1"/></g></svg>