<svg xmlns="http://www.w3.org/2000/svg" xml:space="preserve" id="Livello_1" width="256" height="60" x="0" y="0" version="1.1"><style id="style2">.st0{fill:#56ade2}.st1{fill:#1b8ace}</style><g id="g302" transform="translate(6.109 6.637)scale(.42449)"><path id="path4" d="M365.4 30.6c1.1-.4 2.1-1 3-1.7 5-3.2 8.8-7.3 9.5-13.6.2-1.7-.3-2.4-2.1-2.3-5 .1-10 .1-15 0-2.2 0-2.2.7-1.5 2.5 1.3 3.5 1.3 7-1.1 10.2-.7.9-1.2 1.3-2.5.7-7.9-3.6-15.9-3.4-23.6.5-7.9 4.1-12.6 10.4-12.5 19.6.1 5.6 2.1 10.4 6.1 14.2 1.6 1.5 1.4 2.3-.4 3.2-.5.2-1 .6-1.4 1-2.6 2.3-5.3 4.7-5.4 8.6-.1 5.8 3.5 9.9 9.5 11.3 5.4 1.2 10.8.8 16.8 1h9.6c1.3 0 2.5.2 3.7.6 2.5.8 4.5 1.9 4.8 4.8.3 3.1-.8 5.5-3.7 7-1.9 1-3.9 1.5-6 1.5-5.6.1-10.9-1.3-15.7-4.1-2.1-1.3-3.1-.8-4 1.2-.6 1.4-1.5 2.8-2.4 4.1-1.2 1.8-.9 2.9 1 4 11.5 6.5 23.3 7.2 34.8.5 10.6-6.1 10.9-20.1 1-27.2-4-2.9-8.7-3.6-13.5-3.7-5.6-.1-11.2.2-16.7-.3-1.6-.2-3.1-.3-4.6-1.2-2-1.2-2.5-3.4-1.5-5.9 1-2.2 2.6-1.2 4-.8 4.8 1.4 9.8 1.3 14.6.5 6.8-1.1 12.7-4.2 16-10.6 4.1-7.9 3.8-15.7-1.8-22.9-.9-1.4-.7-2 1-2.7zm-14.9 24.3c-1.9.7-3.9 1.3-5.1 1.2-5.1-.2-8.9-1.2-11.6-4.5-3.8-4.7-2.1-11.9 3.6-14.5 4.5-2 9.2-2.1 13.8-.2 4.1 1.8 6 4.9 5.9 9.4-.2 3.9-2.7 7.3-6.6 8.6zM31.9 87c-10.4-.2-20.2-2.5-28.7-9-.3-.2-.5-.4-.8-.6-3.1-2.7-3.1-2.7-.6-5.8 1.2-1.5 2.5-2.9 3.6-4.5 1-1.3 1.7-1.3 3-.2 5.9 4.9 12.7 7.9 20.4 8.5 5 .4 9.8-.4 14.1-3.2 4.6-2.9 6.6-7.1 6-12.5-.6-4.7-3.5-7.7-7.7-9.7-5.8-2.8-12.3-2.6-18.5-3.9-7.3-1.5-13.9-4.3-17.2-11.6C.6 23.4 4.1 10 15.6 3.7c9.2-5 18.5-4.5 28-1.3 2.6.9 5 2.2 7.4 3.5 1.5.8 1.7 1.5.7 2.9-1.4 1.9-2.8 3.9-4.2 5.9-.9 1.4-1.7 1.5-3.3.7-5.8-3.2-12-4.8-18.7-3.4-7.3 1.6-11.2 9.6-7.9 16.1 1.4 2.8 4.1 4.1 6.9 4.8 4.9 1.1 10 1.9 14.9 3.1 7.8 1.9 15.2 4.7 19.5 12.2 6.5 11.5 3.6 29.5-12.3 35.8-1.8.7-3.6 1.4-5.4 1.8-2.9.8-6.1 1.4-9.3 1.2zm271.9-23.4c-.1-6.6.1-13.2-.1-19.7-.2-9.5-5-16.2-13.4-18.6-9.1-2.6-18-1.4-26.3 3.3-3.3 1.9-3.2 1.9-1.3 5.3.4.7.9 1.4 1.2 2.2 1 2.2 2.3 2.7 4.7 1.6 4.7-2.1 9.7-2.4 14.7-1.5 5.3 1 8.3 5.5 8.4 12.5 0 2-.2 2.5-2.5 1.9-7.1-1.8-14.2-3.2-21.7-1.6-14.4 3-17.9 17.3-13.1 27.5 3.2 6.8 9.2 9.8 16.4 10.5 6.6.6 12.9-.8 19-3.2.6-.2 1.7-1 1.7.2-.1 2.7 1.6 2.1 3.1 2.2 2 0 4-.2 6 0 2.3.2 3.1-.5 3.1-3 0-6.6.1-13.1.1-19.6zm-17.1 9.6c-4.1 1.9-8.3 2.8-12.5 2.9-6.7.1-10.2-2.8-10.2-8.5 0-4.8 3.5-8.4 8.2-8.5 6.3-.2 12.2 1.3 18 3.6 1.3.5 1.7 1.2 1.7 2.6-.3 6.4 1.2 4.9-5.2 7.9z" class="st0"/><path id="path6" d="M533 46.6c-3.7-22.3-26.5-27.1-40.5-19-7.8 4.5-12.2 11.5-13.9 20.3-2 10.3-.6 19.9 6.1 28.3 9.4 11.7 27.2 14.4 40.7 6.3 3.2-1.9 3.2-1.9 1.3-5.2-.7-1.3-1.5-2.6-2.2-3.9-.6-1-1.2-1.5-2.6-.8-4 1.9-8.4 2.6-12.8 2.9-8.5.5-16.8-5.3-18.6-12.9-.5-2.1 0-2.8 2.2-2.8 6.3.1 12.7 0 19 0 6.4 0 12.8-.1 19.2 0 2 0 2.8-.8 2.8-2.8.2-3.5-.1-7-.7-10.4zM519.1 50c-4.6-.1-9.2 0-13.7 0h-13.7c-1.5 0-1.9-.5-1.7-1.9.8-5.8 6.7-11.7 13-12.9 6.6-1.3 13.2 1.5 16.3 7 1 1.8 1.6 3.8 1.8 5.9.1 1.5-.5 1.9-2 1.9z" class="st1"/><path id="path8" d="M77.6 26c6.1 0 6.2 0 8.5 5.8 4.6 11.6 9.2 23.1 13.7 34.7.3.7.5 1.7 1.2 1.7 1 .1.8-1.1 1-1.7 4.9-12.9 9.8-25.7 14.6-38.7.5-1.5 1.2-1.9 2.7-1.9 3.2.1 6.5.1 9.7 0 1.6 0 2.1.4 1.4 2L116 64.2c-3.7 9.3-7 18.8-11.3 27.9-2.8 5.9-6.3 11.4-12.2 14.7-6.2 3.5-12.9 3.6-19.6 2.4-4.7-.8-4.6-1-2.3-5.1.1-.2.2-.5.3-.7 1.6-3.9 3.6-5.9 8.6-5 6.4 1.1 10.4-2.3 13.4-8 2.1-4 1.9-7.3.1-11.4-7.2-16.6-14-33.3-21-50-1.2-3-1.2-3 2.4-3Zm64.2 29.8V28.3c0-1.8.5-2.5 2.4-2.4 2.7.2 5.3.1 8 0 1 0 1.8.1 1.7 1.5-.1 1.8.7 1.6 2 1 6.1-2.7 12.5-4.6 19.3-4.5 6.5.1 12.3 1.9 16.5 7.2 2.6 3.3 4 7.1 4.2 11.2.6 13.8.1 27.6.3 41.5 0 1.5-.4 2.1-2 2-2.6-.1-5.2-.1-7.7 0-1.8.1-2.4-.5-2.4-2.4.1-11.3.1-22.6 0-34 0-2.3 0-4.6-.8-6.9-1.4-4.1-4.3-6.2-8.4-6.8-6.7-1.1-12.9.3-18.7 3.5-1.7.9-2.3 2-2.3 4 .1 13.2 0 26.5.1 39.7 0 2.2-.4 3.2-2.9 2.9-2.2-.2-4.5-.2-6.7 0-2 .1-2.6-.4-2.5-2.5 0-9-.1-18.2-.1-27.5zm74.4-2.2c0-4.5-.1-9 0-13.5 0-1.9-.4-2.7-2.5-2.7-3.6.1-3.6 0-3.6-3.6 0-2 .1-4 0-6-.1-1.5.6-2 1.9-1.9.4 0 .8-.1 1.2 0 2.2.3 3.1-.4 3-2.8-.2-4.2 0-8.5-.1-12.7-.1-2 .7-2.6 2.6-2.5 2.2.1 4.5.2 6.7 0 2.1-.2 3 .5 2.9 2.8-.2 4.2.1 8.3-.1 12.5-.1 2.4.8 3 3 2.9 3.2-.2 6.5.1 9.7-.1 2.1-.1 2.6.7 2.5 2.6-.1 2-.1 4 0 6 .1 2.1-.6 3-2.8 2.9-3.3-.2-6.7 0-10 0-1.3 0-2.4.2-2.3 1.8.2 9.2-.6 18.3.5 27.5.8 6.6 4.9 9.8 11.5 9.1 3.1-.3 3.1-.3 3.1 2.9v5.5c0 .9-.2 1.6-1.2 1.9-7.4 1.8-18.2.2-22.8-7.7-2.1-3.5-3-7.4-3.1-11.4-.2-4.5 0-9 0-13.5z" class="st0"/><path id="path10" d="M547.2 53.5c0-4.5-.1-9 0-13.5 0-1.9-.6-2.6-2.6-2.6-3.5.1-3.5 0-3.5-3.6 0-1.9.1-3.8 0-5.7-.1-1.5.5-2.2 2-2.1.7.1 1.3-.1 2 0 1.7.2 2.2-.5 2.1-2.1-.1-4.5 0-9-.1-13.5 0-1.8.5-2.6 2.4-2.5 2.6.1 5.2.1 7.7 0 1.5 0 2 .6 2 2.1-.1 4.6 0 9.2-.1 13.7 0 1.8.5 2.4 2.3 2.3 3.6-.1 7.2 0 10.7-.1 1.6 0 2.2.6 2.2 2.2-.1 2.4-.1 4.8 0 7.2 0 1.7-.9 2.1-2.4 2.1h-10.5c-1.4 0-2.3.3-2.3 1.9.2 9.1-.6 18.2.5 27.2.8 6.9 4.9 10.1 11.8 9.2 2.4-.3 3 .4 2.8 2.6-.1 1.2 0 2.5 0 3.7 0 4.3.6 4-3.7 4.5-12.2 1.4-22.5-3.9-23.3-19.1-.3-4.6 0-9.3 0-14zm-95.8 11.7c.1-1.8.3-2.8.3-3.8 0-19.2.1-38.3 0-57.5 0-2.5.6-3.5 3.2-3.3 2.5.2 5 .1 7.5 0 1.5 0 2.2.6 2.1 2.1v80.5c0 3.5-.1 3-3.4 3.6-6.7 1-10.6-1.8-14.4-7.2-13.3-18.6-27.3-36.8-41-55.1-.4-.6-.9-1.1-1.9-2.2-.2 1.7-.4 2.7-.4 3.7v57.2c0 3.5 0 3.5-3.4 3.5-2.3 0-4.7-.1-7 0-1.7.1-2.4-.5-2.4-2.3.1-2.2 0-4.5 0-6.7V4.2c0-3.5.1-3.1 3.6-3.6 6.5-.9 10.3 1.8 14 7 13.3 18.5 27.2 36.6 40.8 54.9.6.7 1.2 1.4 2.4 2.7z" class="st1"/></g></svg>